<?xml version="1.0" encoding="UTF-8"?><svg id="uuid-9272299e-b86d-4f55-b6d3-2fdb4c92df33" xmlns="http://www.w3.org/2000/svg" viewBox="0 0 576 440.44"><defs><style>.uuid-2940f4f8-2f72-40c6-b93d-e8e1203412a4{fill:#d7ffdc;}.uuid-2afe5007-fcf6-4bb3-8650-e075d4c35d65{fill:#bfe3c4;}.uuid-b2eaa3a6-1954-4c1a-9974-2fb8416f8636{fill:none;stroke:#64c770;stroke-linecap:round;stroke-linejoin:round;stroke-width:6px;}.uuid-b5bcf1cb-25ba-4d46-ac6e-e4f9dda1dabb{fill:#64c770;}</style></defs><g id="uuid-8fb56a70-621f-4812-98b0-8b6d6089fcef"><path class="uuid-2afe5007-fcf6-4bb3-8650-e075d4c35d65" d="M0,436.44V84.45h576v352c0,2.21-1.79,4-4,4H4c-2.21,0-4-1.79-4-4Z"/><path class="uuid-2940f4f8-2f72-40c6-b93d-e8e1203412a4" d="M0,84.45V4C0,1.79,1.79,0,4,0h568c2.21,0,4,1.79,4,4v80.45H0Z"/><path class="uuid-b5bcf1cb-25ba-4d46-ac6e-e4f9dda1dabb" d="M49.7,21.57c11.39,0,20.65,9.27,20.65,20.65s-9.27,20.65-20.65,20.65-20.65-9.27-20.65-20.65,9.27-20.65,20.65-20.65M49.7,15.57c-14.72,0-26.65,11.93-26.65,26.65s11.93,26.65,26.65,26.65,26.65-11.93,26.65-26.65-11.93-26.65-26.65-26.65h0Z"/><polyline class="uuid-b2eaa3a6-1954-4c1a-9974-2fb8416f8636" points="35.27 40.32 47.35 52.22 62.86 32.75"/></g></svg>